<svg width="13" height="13" viewBox="0 0 13 13" fill="none" xmlns="http://www.w3.org/2000/svg">
<path fill-rule="evenodd" clip-rule="evenodd" d="M1 6.30986C1 3.3773 3.3773 1 6.30986 1C9.24241 1 11.6197 3.3773 11.6197 6.30986C11.6197 9.24241 9.24241 11.6197 6.30986 11.6197C3.3773 11.6197 1 9.24241 1 6.30986ZM6.30986 0C2.82502 0 0 2.82502 0 6.30986C0 9.7947 2.82502 12.6197 6.30986 12.6197C9.7947 12.6197 12.6197 9.7947 12.6197 6.30986C12.6197 2.82502 9.7947 0 6.30986 0ZM6.80986 2.82394C6.80986 2.5478 6.586 2.32394 6.30986 2.32394C6.03372 2.32394 5.80986 2.5478 5.80986 2.82394V6.30986C5.80986 6.49925 5.91686 6.67238 6.08625 6.75707L8.4102 7.91904C8.65718 8.04254 8.95752 7.94243 9.08102 7.69544C9.20451 7.44845 9.1044 7.14811 8.85741 7.02462L6.80986 6.00084V2.82394Z" fill="#9E072A"/>
</svg>
