<svg width="37" height="37" viewBox="0 0 37 37" fill="none" xmlns="http://www.w3.org/2000/svg">
<path d="M36.9181 20.2303H0.0834656V20.2309H36.9181V20.2303Z" fill="#C42126"/>
<path d="M34.9981 10.1312H2.00192V10.1318H34.9981V10.1312Z" fill="#C42126"/>
<path d="M36.309 13.4971H0.689819V13.4976H36.309V13.4971Z" fill="#C42126"/>
<path d="M7.95131 33.6945H29.049L29.0501 33.6934H7.95013L7.95131 33.6945Z" fill="#C42126"/>
<path d="M18.4998 0C18.1365 0 17.776 0.0131229 17.4182 0.0335883H19.5818C19.2236 0.0131229 18.8632 0 18.4998 0Z" fill="#C42126"/>
<path d="M36.9227 16.8636H0.0763855V16.8642H36.9227V16.8636Z" fill="#C42126"/>
<path d="M23.9678 6.76529H32.8017C31.7524 5.48792 30.5329 4.35717 29.1819 3.3999H22.5485C23.0974 4.3656 23.5694 5.50511 23.9678 6.76529Z" fill="#E7E7E7"/>
<path d="M22.5484 3.39982H29.1819C26.4396 1.45646 23.1472 0.239473 19.5818 0.0335693H19.0122C20.6904 0.244785 21.4612 1.48677 22.5484 3.39982Z" fill="#DC3027"/>
<path d="M36.3102 13.4973C35.9813 12.3243 35.5402 11.1987 34.9981 10.132H24.835C25.0409 11.2125 25.2034 12.3411 25.3237 13.4973H36.3102Z" fill="#E7E7E7"/>
<path d="M24.2634 10.1314H34.9978C34.3861 8.92828 33.6512 7.79924 32.8017 6.7655H23.4248C23.7555 7.81213 24.0362 8.94116 24.2634 10.1314Z" fill="#DC3027"/>
<path d="M25.7129 20.2295H36.9166C36.9698 19.6602 36.9999 19.0833 36.9999 18.5003C36.9999 17.9485 36.971 17.4037 36.9236 16.8639H25.7155C25.752 17.9832 25.7514 19.1108 25.7129 20.2295Z" fill="#E7E7E7"/>
<path d="M36.9239 16.8633C36.8225 15.7074 36.6143 14.5828 36.3102 13.4979H24.8517C24.9668 14.6 25.0428 15.7276 25.0799 16.8633H36.9239Z" fill="#DC3027"/>
<path d="M24.6417 26.9618H34.9496C35.4993 25.8962 35.9474 24.7698 36.2834 23.5958H25.1401C25.0174 24.7538 24.8508 25.8822 24.6417 26.9618Z" fill="#E7E7E7"/>
<path d="M36.2836 23.5955C36.5941 22.5109 36.8097 21.3863 36.9169 20.2301H25.3638C25.3243 21.3667 25.2461 22.494 25.1287 23.5955H36.2836Z" fill="#DC3027"/>
<path d="M29.0501 33.6934C30.4207 32.74 31.6574 31.608 32.7233 30.328H24.0434C23.6377 31.5934 23.156 32.7311 22.5972 33.6934H29.0501Z" fill="#E7E7E7"/>
<path d="M23.7169 30.3277H32.7234C33.5828 29.2952 34.3288 28.1661 34.9495 26.9618H24.566C24.3356 28.1529 24.052 29.2825 23.7169 30.3277Z" fill="#DC3027"/>
<path d="M17.8295 36.9869C17.792 36.9857 17.7547 36.984 17.7173 36.9828C17.7547 36.9839 17.7921 36.9857 17.8295 36.9869Z" fill="#DC3027"/>
<path d="M18.4999 37.0001C22.422 37.0001 26.0561 35.7758 29.049 33.6946H22.3536C21.1653 35.7419 20.3813 37.0001 18.4999 37.0001Z" fill="#DC3027"/>
<path d="M18.4999 37.0001C18.2752 37.0001 18.0521 36.9948 17.8295 36.9869C18.0544 36.9945 18.2778 37.0001 18.4999 37.0001Z" fill="#C42126"/>
<path d="M23.161 3.3999H7.81842C6.46715 4.35717 5.2479 5.48784 4.1983 6.76529H24.5801C24.1816 5.50511 23.7099 4.3656 23.161 3.3999Z" fill="#F3F4F5"/>
<path d="M7.81842 3.39982H23.161C22.0735 1.48677 20.6904 0.244785 19.0122 0.0335693H17.4182C13.8528 0.239473 10.5604 1.45646 7.81842 3.39982Z" fill="#E73625"/>
<path d="M0.690125 13.4973H25.9071C25.7867 12.3409 25.6244 11.2125 25.4184 10.132H2.00225C1.46008 11.1988 1.01906 12.3243 0.690125 13.4973Z" fill="#F3F4F5"/>
<path d="M4.1983 6.76526C3.34945 7.799 2.61395 8.92796 2.00256 10.1312H25.4184C25.1915 8.94116 24.9108 7.8122 24.5801 6.76526C24.5801 6.76526 4.1983 6.76526 4.1983 6.76526Z" fill="#E73625"/>
<path d="M0.000152588 18.5003C0.000152588 19.0833 0.0305383 19.6602 0.0834203 20.2295H26.1332C26.1718 19.1107 26.1723 17.9835 26.1358 16.8641H0.0763902C0.0290541 17.4037 0.000152588 17.9485 0.000152588 18.5003Z" fill="#F3F4F5"/>
<path d="M0.0763855 16.8633H26.1355C26.0984 15.7273 26.0222 14.6001 25.9073 13.4979H0.689801C0.38571 14.5831 0.177463 15.7074 0.0763855 16.8633Z" fill="#E73625"/>
<path d="M25.8981 23.5956H0.716705C1.05267 24.7698 1.50103 25.8959 2.05047 26.9615H25.3997C25.6089 25.8822 25.7751 24.7538 25.8981 23.5956Z" fill="#F3F4F5"/>
<path d="M0.716691 23.5955H25.8981C26.0152 22.494 26.0937 21.3664 26.1332 20.2301H0.0834351C0.190605 21.3866 0.406507 22.5109 0.716691 23.5955Z" fill="#E73625"/>
<path d="M7.95012 33.6934H23.1046C23.6634 32.7309 24.1454 31.5934 24.5509 30.328H4.27689C5.34281 31.608 6.57925 32.74 7.95012 33.6934Z" fill="#F3F4F5"/>
<path d="M2.05078 26.9617C2.67154 28.166 3.41751 29.295 4.2769 30.3276H24.5509C24.8857 29.2825 25.1693 28.1529 25.3997 26.9617H2.05078Z" fill="#E73625"/>
<path d="M17.7173 36.9828C17.7547 36.9839 17.792 36.9856 17.8295 36.9868C18.0521 36.9947 18.2752 36.9999 18.4998 36.9999C20.3813 36.9999 21.9154 35.7419 23.104 33.6945H7.95129C10.7436 35.6365 14.0952 36.8318 17.7173 36.9828Z" fill="#E73625"/>
<path d="M18.1174 0.00964355C8.63719 0.202503 0.910319 7.52233 0.0787354 16.8332H18.1178V0.00964355H18.1174Z" fill="#283991"/>
<path d="M3.70172 10.4817L3.98355 11.3495H4.89669L4.15798 11.8861L4.44012 12.7546L3.70172 12.2177L2.96356 12.7546L3.24516 11.8861L2.50668 11.3495H3.41982L3.70172 10.4817Z" fill="#EFEFEF"/>
<path d="M3.70172 13.5477L3.98355 14.4161H4.89669L4.15798 14.9527L4.44012 15.8212L3.70172 15.2842L2.96356 15.8212L3.24516 14.9527L2.50668 14.4161H3.41982L3.70172 13.5477Z" fill="#EFEFEF"/>
<path d="M6.76826 5.88159L7.05017 6.74973H7.96299L7.22451 7.28668L7.50642 8.1545L6.76826 7.61819L6.02979 8.1545L6.31169 7.28668L5.57291 6.74973H6.48604L6.76826 5.88159Z" fill="#EFEFEF"/>
<path d="M6.76826 8.94812L7.05017 9.81626H7.96299L7.22451 10.3526L7.50642 11.221L6.76826 10.6847L6.02979 11.221L6.31169 10.3526L5.57291 9.81626H6.48604L6.76826 8.94812Z" fill="#EFEFEF"/>
<path d="M6.76826 12.0146L7.05017 12.8831H7.96299L7.22451 13.4191L7.50642 14.2876L6.76826 13.7507L6.02979 14.2876L6.31169 13.4191L5.57291 12.8831H6.48604L6.76826 12.0146Z" fill="#EFEFEF"/>
<path d="M1.37359 14.2876L1.09145 13.4191L1.82992 12.8828H0.917337L0.896872 12.8195C0.796654 13.1294 0.706122 13.4431 0.62262 13.7603L0.635508 13.7507L1.37359 14.2876Z" fill="#EFEFEF"/>
<path d="M2.96356 9.68807L3.70172 9.1512L4.4402 9.68807L4.15805 8.81961L4.89653 8.28275H3.9834L3.70149 7.41492L3.41958 8.28275H3.08307C3.02058 8.37742 2.96012 8.47264 2.89935 8.56871L3.24523 8.81961L2.96356 9.68807Z" fill="#EFEFEF"/>
<path d="M6.76827 4.5516L7.50643 5.08792L7.22453 4.22009L7.96269 3.68323H7.43543C6.98761 4.01802 6.55557 4.37233 6.14049 4.74618L6.02917 5.08792L6.76827 4.5516Z" fill="#EFEFEF"/>
<path d="M9.09631 3.55508L9.83479 3.01821L10.5729 3.55508L10.291 2.68662L11.0292 2.1503H10.1164L10.0781 2.03345C9.76878 2.19147 9.46266 2.35589 9.16349 2.53087L9.37791 2.68654L9.09631 3.55508Z" fill="#EFEFEF"/>
<path d="M9.8348 4.34863L10.1167 5.21623H11.0295L10.2911 5.75309L10.573 6.62154L9.8348 6.0846L9.09633 6.62154L9.37824 5.75309L8.63953 5.21623H9.55258L9.8348 4.34863Z" fill="#EFEFEF"/>
<path d="M9.8348 7.41516L10.1167 8.28275H11.0295L10.2911 8.81962L10.573 9.68807L9.8348 9.15113L9.09633 9.68807L9.37824 8.81962L8.63953 8.28275H9.55258L9.8348 7.41516Z" fill="#EFEFEF"/>
<path d="M9.8348 10.4817L10.1167 11.3495H11.0295L10.2911 11.8861L10.573 12.7546L9.8348 12.2177L9.09633 12.7546L9.37824 11.8861L8.63953 11.3495H9.55258L9.8348 10.4817Z" fill="#EFEFEF"/>
<path d="M9.8348 13.5477L10.1167 14.4161H11.0295L10.2911 14.9527L10.573 15.8212L9.8348 15.2842L9.09633 15.8212L9.37824 14.9527L8.63953 14.4161H9.55258L9.8348 13.5477Z" fill="#EFEFEF"/>
<path d="M12.9013 2.81506L13.1832 3.6832H14.0961L13.3579 4.22015L13.6395 5.08798L12.9013 4.55166L12.1626 5.08798L12.4448 4.22015L11.7061 3.6832H12.6191L12.9013 2.81506Z" fill="#EFEFEF"/>
<path d="M12.9013 5.88159L13.1832 6.74973H14.0961L13.3579 7.28668L13.6395 8.1545L12.9013 7.61819L12.1626 8.1545L12.4448 7.28668L11.7061 6.74973H12.6191L12.9013 5.88159Z" fill="#EFEFEF"/>
<path d="M12.9013 8.94812L13.1832 9.81626H14.0961L13.3579 10.3526L13.6395 11.221L12.9013 10.6847L12.1626 11.221L12.4448 10.3526L11.7061 9.81626H12.6191L12.9013 8.94812Z" fill="#EFEFEF"/>
<path d="M12.9013 12.0146L13.1832 12.8831H14.0961L13.3579 13.4191L13.6395 14.2876L12.9013 13.7507L12.1626 14.2876L12.4448 13.4191L11.7061 12.8831H12.6191L12.9013 12.0146Z" fill="#EFEFEF"/>
<path d="M15.9679 1.2821L16.2498 2.15025H17.1626L16.4241 2.68656L16.706 3.55502L15.9679 3.01807L15.2291 3.55502L15.5113 2.68656L14.7726 2.15025H15.6854L15.9679 1.2821Z" fill="#EFEFEF"/>
<path d="M15.9679 4.34863L16.2498 5.21623H17.1626L16.4241 5.75309L16.706 6.62154L15.9679 6.0846L15.2291 6.62154L15.5113 5.75309L14.7726 5.21623H15.6854L15.9679 4.34863Z" fill="#EFEFEF"/>
<path d="M15.9679 7.41516L16.2498 8.28275H17.1626L16.4241 8.81962L16.706 9.68807L15.9679 9.15113L15.2291 9.68807L15.5113 8.81962L14.7726 8.28275H15.6854L15.9679 7.41516Z" fill="#EFEFEF"/>
<path d="M15.9679 10.4817L16.2498 11.3495H17.1626L16.4241 11.8861L16.706 12.7546L15.9679 12.2177L15.2291 12.7546L15.5113 11.8861L14.7726 11.3495H15.6854L15.9679 10.4817Z" fill="#EFEFEF"/>
<path d="M15.9679 13.5477L16.2498 14.4161H17.1626L16.4241 14.9527L16.706 15.8212L15.9679 15.2842L15.2291 15.8212L15.5113 14.9527L14.7726 14.4161H15.6854L15.9679 13.5477Z" fill="#EFEFEF"/>
</svg>
